<mxfile host="app.diagrams.net" agent="Mozilla/5.0 (Windows NT 10.0; Win64; x64) AppleWebKit/537.36 (KHTML, like Gecko) Chrome/141.0.0.0 Safari/537.36" version="28.2.8">
  <diagram name="Page-1" id="tty4ZWC31AY4s4tgOFbM">
    <mxGraphModel dx="1188" dy="659" grid="1" gridSize="10" guides="1" tooltips="1" connect="1" arrows="1" fold="1" page="1" pageScale="1" pageWidth="850" pageHeight="1100" math="0" shadow="0">
      <root>
        <mxCell id="0" />
        <mxCell id="1" parent="0" />
        <mxCell id="Ocyz-wdEKcSdnha614gD-4" style="edgeStyle=orthogonalEdgeStyle;rounded=0;orthogonalLoop=1;jettySize=auto;html=1;fillColor=#6a00ff;strokeColor=#3700CC;" parent="1" source="Ocyz-wdEKcSdnha614gD-1" edge="1">
          <mxGeometry relative="1" as="geometry">
            <mxPoint x="400" y="120" as="targetPoint" />
          </mxGeometry>
        </mxCell>
        <mxCell id="Ocyz-wdEKcSdnha614gD-1" value="START" style="ellipse;whiteSpace=wrap;html=1;fillColor=#60a917;fontColor=#ffffff;strokeColor=#2D7600;" parent="1" vertex="1">
          <mxGeometry x="360" width="80" height="60" as="geometry" />
        </mxCell>
        <mxCell id="Ocyz-wdEKcSdnha614gD-8" style="edgeStyle=orthogonalEdgeStyle;rounded=0;orthogonalLoop=1;jettySize=auto;html=1;fillColor=#6a00ff;strokeColor=#3700CC;" parent="1" source="Ocyz-wdEKcSdnha614gD-7" edge="1">
          <mxGeometry relative="1" as="geometry">
            <mxPoint x="400" y="280" as="targetPoint" />
          </mxGeometry>
        </mxCell>
        <mxCell id="Ocyz-wdEKcSdnha614gD-7" value="WPROWADŹ &quot;a&quot;&lt;br&gt;WPROWADŹ &quot;b&quot;&lt;br&gt;WPROWADŹ &quot;c&quot;" style="shape=parallelogram;perimeter=parallelogramPerimeter;whiteSpace=wrap;html=1;fixedSize=1;strokeColor=light-dark(#000000,#FF0000);" parent="1" vertex="1">
          <mxGeometry x="320" y="120" width="160" height="70" as="geometry" />
        </mxCell>
        <mxCell id="Ocyz-wdEKcSdnha614gD-11" style="edgeStyle=orthogonalEdgeStyle;rounded=0;orthogonalLoop=1;jettySize=auto;html=1;fillColor=#6a00ff;strokeColor=#3700CC;" parent="1" source="Ocyz-wdEKcSdnha614gD-10" edge="1">
          <mxGeometry relative="1" as="geometry">
            <mxPoint x="510" y="319.9999999999999" as="targetPoint" />
          </mxGeometry>
        </mxCell>
        <mxCell id="Ocyz-wdEKcSdnha614gD-28" style="edgeStyle=orthogonalEdgeStyle;rounded=0;orthogonalLoop=1;jettySize=auto;html=1;fillColor=#6a00ff;strokeColor=#3700CC;" parent="1" source="Ocyz-wdEKcSdnha614gD-10" edge="1">
          <mxGeometry relative="1" as="geometry">
            <mxPoint x="280" y="320" as="targetPoint" />
          </mxGeometry>
        </mxCell>
        <mxCell id="Ocyz-wdEKcSdnha614gD-10" value="a=0" style="rhombus;whiteSpace=wrap;html=1;strokeColor=light-dark(#000000,#FF0000);" parent="1" vertex="1">
          <mxGeometry x="360" y="280" width="80" height="80" as="geometry" />
        </mxCell>
        <mxCell id="Ocyz-wdEKcSdnha614gD-25" value="" style="endArrow=classic;html=1;rounded=0;exitX=0.5;exitY=0;exitDx=0;exitDy=0;entryX=1;entryY=0.5;entryDx=0;entryDy=0;fillColor=#6a00ff;strokeColor=#3700CC;" parent="1" target="Ocyz-wdEKcSdnha614gD-7" edge="1">
          <mxGeometry width="50" height="50" relative="1" as="geometry">
            <mxPoint x="580" y="289.9999999999999" as="sourcePoint" />
            <mxPoint x="610" y="360" as="targetPoint" />
            <Array as="points">
              <mxPoint x="580" y="155" />
            </Array>
          </mxGeometry>
        </mxCell>
        <mxCell id="Ocyz-wdEKcSdnha614gD-26" value="TAK&lt;div&gt;&lt;br&gt;&lt;/div&gt;" style="text;html=1;whiteSpace=wrap;strokeColor=none;fillColor=none;align=center;verticalAlign=middle;rounded=0;" parent="1" vertex="1">
          <mxGeometry x="430" y="295" width="60" height="15" as="geometry" />
        </mxCell>
        <mxCell id="Ocyz-wdEKcSdnha614gD-29" value="NIE" style="text;html=1;whiteSpace=wrap;strokeColor=none;fillColor=none;align=center;verticalAlign=middle;rounded=0;" parent="1" vertex="1">
          <mxGeometry x="290" y="290" width="60" height="15" as="geometry" />
        </mxCell>
        <mxCell id="Ocyz-wdEKcSdnha614gD-30" style="edgeStyle=orthogonalEdgeStyle;rounded=0;orthogonalLoop=1;jettySize=auto;html=1;exitX=0.5;exitY=1;exitDx=0;exitDy=0;" parent="1" source="Ocyz-wdEKcSdnha614gD-29" target="Ocyz-wdEKcSdnha614gD-29" edge="1">
          <mxGeometry relative="1" as="geometry" />
        </mxCell>
        <mxCell id="Ocyz-wdEKcSdnha614gD-34" style="edgeStyle=orthogonalEdgeStyle;rounded=0;orthogonalLoop=1;jettySize=auto;html=1;" parent="1" edge="1">
          <mxGeometry relative="1" as="geometry">
            <mxPoint x="200" y="420" as="targetPoint" />
            <mxPoint x="200" y="349.9999999999999" as="sourcePoint" />
          </mxGeometry>
        </mxCell>
        <mxCell id="Ocyz-wdEKcSdnha614gD-36" style="edgeStyle=orthogonalEdgeStyle;rounded=0;orthogonalLoop=1;jettySize=auto;html=1;fillColor=#6a00ff;strokeColor=#3700CC;" parent="1" edge="1">
          <mxGeometry relative="1" as="geometry">
            <mxPoint x="90" y="460" as="targetPoint" />
            <mxPoint x="160" y="459.9999999999999" as="sourcePoint" />
          </mxGeometry>
        </mxCell>
        <mxCell id="Ocyz-wdEKcSdnha614gD-37" style="edgeStyle=orthogonalEdgeStyle;rounded=0;orthogonalLoop=1;jettySize=auto;html=1;fillColor=#6a00ff;strokeColor=#3700CC;" parent="1" edge="1">
          <mxGeometry relative="1" as="geometry">
            <mxPoint x="310" y="460" as="targetPoint" />
            <mxPoint x="240" y="459.9999999999999" as="sourcePoint" />
          </mxGeometry>
        </mxCell>
        <mxCell id="Ocyz-wdEKcSdnha614gD-38" value="NIE" style="text;html=1;whiteSpace=wrap;strokeColor=none;fillColor=none;align=center;verticalAlign=middle;rounded=0;" parent="1" vertex="1">
          <mxGeometry x="250" y="430" width="60" height="30" as="geometry" />
        </mxCell>
        <mxCell id="Ocyz-wdEKcSdnha614gD-39" value="TAK" style="text;html=1;whiteSpace=wrap;strokeColor=none;fillColor=none;align=center;verticalAlign=middle;rounded=0;" parent="1" vertex="1">
          <mxGeometry x="100" y="430" width="60" height="30" as="geometry" />
        </mxCell>
        <mxCell id="Ocyz-wdEKcSdnha614gD-45" style="edgeStyle=orthogonalEdgeStyle;rounded=0;orthogonalLoop=1;jettySize=auto;html=1;fillColor=#6a00ff;strokeColor=#3700CC;" parent="1" source="Ocyz-wdEKcSdnha614gD-43" edge="1">
          <mxGeometry relative="1" as="geometry">
            <mxPoint x="55" y="540" as="targetPoint" />
          </mxGeometry>
        </mxCell>
        <mxCell id="Ocyz-wdEKcSdnha614gD-43" value="X&lt;sub&gt;0&amp;nbsp;&lt;/sub&gt;= -b / 2a" style="rounded=0;whiteSpace=wrap;html=1;strokeColor=light-dark(#000000,#FF0000);" parent="1" vertex="1">
          <mxGeometry x="20" y="445" width="70" height="30" as="geometry" />
        </mxCell>
        <mxCell id="Ocyz-wdEKcSdnha614gD-50" style="edgeStyle=orthogonalEdgeStyle;rounded=0;orthogonalLoop=1;jettySize=auto;html=1;fillColor=#6a00ff;strokeColor=#3700CC;" parent="1" source="Ocyz-wdEKcSdnha614gD-47" edge="1">
          <mxGeometry relative="1" as="geometry">
            <mxPoint x="580" y="460" as="targetPoint" />
          </mxGeometry>
        </mxCell>
        <mxCell id="Ocyz-wdEKcSdnha614gD-52" style="edgeStyle=orthogonalEdgeStyle;rounded=0;orthogonalLoop=1;jettySize=auto;html=1;fillColor=#6a00ff;strokeColor=#3700CC;" parent="1" source="Ocyz-wdEKcSdnha614gD-47" edge="1">
          <mxGeometry relative="1" as="geometry">
            <mxPoint x="350" y="560" as="targetPoint" />
          </mxGeometry>
        </mxCell>
        <mxCell id="Ocyz-wdEKcSdnha614gD-47" value="&lt;span style=&quot;color: rgb(38, 38, 38); font-family: &amp;quot;Google Sans&amp;quot;, Arial, sans-serif; font-size: 16px; text-align: start;&quot;&gt;Δ &amp;gt; 0&lt;/span&gt;" style="rhombus;whiteSpace=wrap;html=1;strokeColor=light-dark(#000000,#FF0000);" parent="1" vertex="1">
          <mxGeometry x="310" y="420" width="80" height="80" as="geometry" />
        </mxCell>
        <mxCell id="Ocyz-wdEKcSdnha614gD-48" value="&lt;span style=&quot;color: rgb(38, 38, 38); font-family: &amp;quot;Google Sans&amp;quot;, Arial, sans-serif; font-size: 16px; text-align: start;&quot;&gt;Δ = 0&lt;/span&gt;" style="rhombus;whiteSpace=wrap;html=1;strokeColor=light-dark(#000000,#FF0000);" parent="1" vertex="1">
          <mxGeometry x="160" y="420" width="80" height="80" as="geometry" />
        </mxCell>
        <mxCell id="Ocyz-wdEKcSdnha614gD-51" value="TAK" style="text;html=1;whiteSpace=wrap;strokeColor=none;fillColor=none;align=center;verticalAlign=middle;rounded=0;" parent="1" vertex="1">
          <mxGeometry x="395" y="430" width="60" height="30" as="geometry" />
        </mxCell>
        <mxCell id="Ocyz-wdEKcSdnha614gD-53" value="NIE" style="text;html=1;whiteSpace=wrap;strokeColor=none;fillColor=none;align=center;verticalAlign=middle;rounded=0;rotation=90;" parent="1" vertex="1">
          <mxGeometry x="340" y="510" width="60" height="30" as="geometry" />
        </mxCell>
        <mxCell id="Ocyz-wdEKcSdnha614gD-57" value="WYPISZ &quot;a&quot;, &quot;b&quot;, &quot;c&quot;&lt;br&gt;WYPISZ &quot;a&quot; nie może być 0" style="shape=parallelogram;perimeter=parallelogramPerimeter;whiteSpace=wrap;html=1;fixedSize=1;strokeColor=light-dark(#000000,#FF0000);" parent="1" vertex="1">
          <mxGeometry x="500" y="290" width="180" height="65" as="geometry" />
        </mxCell>
        <mxCell id="Ocyz-wdEKcSdnha614gD-59" value="Wypisz X&lt;sub&gt;0&lt;/sub&gt;" style="shape=parallelogram;perimeter=parallelogramPerimeter;whiteSpace=wrap;html=1;fixedSize=1;strokeColor=light-dark(#000000,#FF0000);" parent="1" vertex="1">
          <mxGeometry x="5" y="540" width="100" height="50" as="geometry" />
        </mxCell>
        <mxCell id="Ocyz-wdEKcSdnha614gD-61" value="WYPISZ Równanie sprzeczne - brak rozwiązań" style="shape=parallelogram;perimeter=parallelogramPerimeter;whiteSpace=wrap;html=1;fixedSize=1;strokeColor=light-dark(#000000,#FF0000);" parent="1" vertex="1">
          <mxGeometry x="205" y="560" width="290" height="60" as="geometry" />
        </mxCell>
        <mxCell id="Ocyz-wdEKcSdnha614gD-62" value="&lt;span style=&quot;font-family: &amp;quot;Google Sans&amp;quot;, Arial, sans-serif; font-size: 16px; text-align: start; vertical-align: -0.25em; color: rgb(38, 38, 38);&quot;&gt;Δ = b&lt;/span&gt;&lt;sup style=&quot;font-family: &amp;quot;Google Sans&amp;quot;, Arial, sans-serif; text-align: start; color: rgb(38, 38, 38);&quot;&gt;2&lt;/sup&gt;&lt;span style=&quot;font-family: &amp;quot;Google Sans&amp;quot;, Arial, sans-serif; font-size: 16px; text-align: start; vertical-align: -0.25em; color: rgb(38, 38, 38);&quot;&gt;&amp;nbsp;- 4ac&lt;/span&gt;" style="whiteSpace=wrap;html=1;strokeColor=light-dark(#000000,#FF0000);" parent="1" vertex="1">
          <mxGeometry x="140" y="290" width="140" height="60" as="geometry" />
        </mxCell>
        <mxCell id="Ocyz-wdEKcSdnha614gD-64" style="edgeStyle=orthogonalEdgeStyle;rounded=0;orthogonalLoop=1;jettySize=auto;html=1;" parent="1" source="Ocyz-wdEKcSdnha614gD-63" edge="1">
          <mxGeometry relative="1" as="geometry">
            <mxPoint x="665" y="580" as="targetPoint" />
          </mxGeometry>
        </mxCell>
        <mxCell id="Ocyz-wdEKcSdnha614gD-63" value="&lt;font&gt;x&lt;sub&gt;1&lt;/sub&gt; = (-b +&amp;nbsp;&lt;/font&gt;&lt;span style=&quot;font-family: &amp;quot;Google Sans&amp;quot;, Arial, sans-serif;&quot;&gt;√&lt;/span&gt;&lt;font style=&quot;color: light-dark(rgb(0, 0, 0), rgb(255, 255, 255)); font-family: &amp;quot;Google Sans&amp;quot;, Arial, sans-serif;&quot;&gt;Δ) / 2a&lt;/font&gt;&lt;div&gt;&lt;span style=&quot;background-color: light-dark(#ffffff, var(--ge-dark-color, #121212));&quot;&gt;&lt;font&gt;&lt;br&gt;&lt;/font&gt;&lt;/span&gt;&lt;/div&gt;&lt;div&gt;&lt;font&gt;&lt;span style=&quot;background-color: light-dark(#ffffff, var(--ge-dark-color, #121212));&quot;&gt;x&lt;sub&gt;2&lt;/sub&gt; = (&lt;/span&gt;&lt;span style=&quot;background-color: transparent; color: light-dark(rgb(0, 0, 0), rgb(255, 255, 255));&quot;&gt;-b -&amp;nbsp;&lt;/span&gt;&lt;/font&gt;&lt;span style=&quot;background-color: transparent; color: light-dark(rgb(0, 0, 0), rgb(255, 255, 255)); font-family: &amp;quot;Google Sans&amp;quot;, Arial, sans-serif;&quot;&gt;√&lt;/span&gt;&lt;font style=&quot;background-color: transparent; color: light-dark(rgb(0, 0, 0), rgb(255, 255, 255)); font-family: &amp;quot;Google Sans&amp;quot;, Arial, sans-serif;&quot;&gt;Δ) / 2a&lt;/font&gt;&lt;/div&gt;" style="whiteSpace=wrap;html=1;align=center;strokeColor=light-dark(#000000,#FF0000);" parent="1" vertex="1">
          <mxGeometry x="580" y="420" width="170" height="80" as="geometry" />
        </mxCell>
        <mxCell id="Ocyz-wdEKcSdnha614gD-66" style="edgeStyle=orthogonalEdgeStyle;rounded=0;orthogonalLoop=1;jettySize=auto;html=1;fillColor=#6a00ff;strokeColor=#3700CC;entryX=0.5;entryY=0;entryDx=0;entryDy=0;" parent="1" source="Ocyz-wdEKcSdnha614gD-65" edge="1" target="Ocyz-wdEKcSdnha614gD-68">
          <mxGeometry relative="1" as="geometry">
            <mxPoint x="660" y="730" as="targetPoint" />
            <Array as="points">
              <mxPoint x="660" y="790" />
              <mxPoint x="385" y="790" />
            </Array>
          </mxGeometry>
        </mxCell>
        <mxCell id="Ocyz-wdEKcSdnha614gD-65" value="WYPISZ X&lt;sub&gt;1&lt;/sub&gt;&lt;br&gt;WYPISZ X&lt;sub&gt;2&lt;/sub&gt;" style="shape=parallelogram;perimeter=parallelogramPerimeter;whiteSpace=wrap;html=1;fixedSize=1;strokeColor=light-dark(#000000,#FF0000);" parent="1" vertex="1">
          <mxGeometry x="570" y="580" width="180" height="60" as="geometry" />
        </mxCell>
        <mxCell id="Ocyz-wdEKcSdnha614gD-68" value="STOP" style="ellipse;whiteSpace=wrap;html=1;fillColor=#ffcccc;strokeColor=#36393d;" parent="1" vertex="1">
          <mxGeometry x="345" y="840" width="80" height="80" as="geometry" />
        </mxCell>
        <mxCell id="Ocyz-wdEKcSdnha614gD-71" value="" style="endArrow=classic;html=1;rounded=0;exitX=0.554;exitY=0.992;exitDx=0;exitDy=0;exitPerimeter=0;fillColor=#6a00ff;strokeColor=#3700CC;entryX=0.5;entryY=0;entryDx=0;entryDy=0;" parent="1" source="Ocyz-wdEKcSdnha614gD-59" edge="1" target="Ocyz-wdEKcSdnha614gD-68">
          <mxGeometry width="50" height="50" relative="1" as="geometry">
            <mxPoint x="65" y="590" as="sourcePoint" />
            <mxPoint x="620" y="780" as="targetPoint" />
            <Array as="points">
              <mxPoint x="60" y="790" />
              <mxPoint x="230" y="790" />
              <mxPoint x="320" y="790" />
              <mxPoint x="385" y="790" />
            </Array>
          </mxGeometry>
        </mxCell>
        <mxCell id="Ocyz-wdEKcSdnha614gD-72" value="" style="endArrow=classic;html=1;rounded=0;exitX=0.5;exitY=1;exitDx=0;exitDy=0;fillColor=#6a00ff;strokeColor=#3700CC;entryX=0.5;entryY=0;entryDx=0;entryDy=0;" parent="1" source="Ocyz-wdEKcSdnha614gD-61" edge="1" target="Ocyz-wdEKcSdnha614gD-68">
          <mxGeometry width="50" height="50" relative="1" as="geometry">
            <mxPoint x="440" y="710" as="sourcePoint" />
            <mxPoint x="620" y="780" as="targetPoint" />
            <Array as="points">
              <mxPoint x="350" y="710" />
              <mxPoint x="350" y="790" />
              <mxPoint x="385" y="790" />
            </Array>
          </mxGeometry>
        </mxCell>
      </root>
    </mxGraphModel>
  </diagram>
</mxfile>
